<?xml version="1.0" encoding="UTF-8" standalone="no"?>
<svg
   width="1964.7457"
   height="1077.9661"
   overflow="hidden"
   version="1.1"
   id="svg83"
   sodipodi:docname="base_image.svg"
   inkscape:version="1.2 (dc2aedaf03, 2022-05-15)"
   xmlns:inkscape="http://www.inkscape.org/namespaces/inkscape"
   xmlns:sodipodi="http://sodipodi.sourceforge.net/DTD/sodipodi-0.dtd"
   xmlns="http://www.w3.org/2000/svg"
   xmlns:svg="http://www.w3.org/2000/svg">
  <sodipodi:namedview
     id="namedview85"
     pagecolor="#ffffff"
     bordercolor="#666666"
     borderopacity="1.0"
     inkscape:showpageshadow="2"
     inkscape:pageopacity="0.0"
     inkscape:pagecheckerboard="0"
     inkscape:deskcolor="#d1d1d1"
     showgrid="false"
     inkscape:zoom="0.24583333"
     inkscape:cx="1775.5932"
     inkscape:cy="1346.4407"
     inkscape:window-width="1920"
     inkscape:window-height="1017"
     inkscape:window-x="-8"
     inkscape:window-y="-8"
     inkscape:window-maximized="1"
     inkscape:current-layer="svg83" />
  <defs
     id="defs5">
    <clipPath
       id="clip0">
      <rect
         x="0"
         y="0"
         width="2880"
         height="1920"
         id="rect2" />
    </clipPath>
    <clipPath
       clipPathUnits="userSpaceOnUse"
       id="clipPath307">
      <rect
         style="fill:none"
         id="rect309"
         width="1964.7457"
         height="1077.9661"
         x="166.77966"
         y="720" />
    </clipPath>
    <clipPath
       clipPathUnits="userSpaceOnUse"
       id="clipPath311">
      <rect
         style="fill:none"
         id="rect313"
         width="1964.7457"
         height="1077.9661"
         x="166.77966"
         y="720" />
    </clipPath>
    <clipPath
       clipPathUnits="userSpaceOnUse"
       id="clipPath315">
      <rect
         style="fill:none"
         id="rect317"
         width="1964.7457"
         height="1077.9661"
         x="166.77966"
         y="720" />
    </clipPath>
  </defs>
  <g
     clip-path="url(#clipPath315)"
     id="g81"
     transform="translate(-166.77966,-720)">
    <rect
       x="0"
       y="0"
       width="2880"
       height="1920"
       fill="#ffffff"
       id="rect7" />
    <path
       d="m 204.5,1442.33 c 0,-34.7 28.132,-62.83 62.835,-62.83 h 670.33 c 34.703,0 62.835,28.13 62.835,62.83 v 251.34 c 0,34.7 -28.132,62.83 -62.835,62.83 h -670.33 c -34.703,0 -62.835,-28.13 -62.835,-62.83 z"
       stroke="#a9d18e"
       stroke-width="13.3333"
       stroke-miterlimit="8"
       fill="#bfbfbf"
       fill-rule="evenodd"
       id="path9" />
    <path
       d="m 415,1354.33 c 0,-6.81 5.522,-12.33 12.333,-12.33 h 350.334 c 6.811,0 12.333,5.52 12.333,12.33 v 49.34 c 0,6.81 -5.522,12.33 -12.333,12.33 H 427.333 C 420.522,1416 415,1410.48 415,1403.67 Z"
       stroke="#a9d18e"
       stroke-width="8"
       stroke-miterlimit="8"
       fill="#ffd966"
       fill-rule="evenodd"
       id="path11" />
    <text
       font-family="Calibri, Calibri_MSFontService, sans-serif"
       font-weight="400"
       font-size="59px"
       transform="translate(461.075,1398)"
       id="text13">Base Image</text>
    <path
       d="m 254.5,1645.17 c 0,-5.89 4.776,-10.67 10.667,-10.67 h 674.666 c 5.891,0 10.667,4.78 10.667,10.67 v 42.66 c 0,5.89 -4.776,10.67 -10.667,10.67 H 265.167 c -5.891,0 -10.667,-4.78 -10.667,-10.67 z"
       stroke="#ffffff"
       stroke-width="5.33333"
       stroke-miterlimit="8"
       fill="#767171"
       fill-rule="evenodd"
       id="path15" />
    <text
       fill="#ffffff"
       font-family="Calibri, Calibri_MSFontService, sans-serif"
       font-weight="400"
       font-size="43px"
       transform="translate(540.419,1680)"
       id="text17">Layer 1</text>
    <path
       d="m 254.5,1551 c 0,-5.8 4.701,-10.5 10.5,-10.5 h 675 c 5.799,0 10.5,4.7 10.5,10.5 v 42 c 0,5.8 -4.701,10.5 -10.5,10.5 H 265 c -5.799,0 -10.5,-4.7 -10.5,-10.5 z"
       stroke="#ffffff"
       stroke-width="5.33333"
       stroke-miterlimit="8"
       fill="#767171"
       fill-rule="evenodd"
       id="path19" />
    <text
       fill="#ffffff"
       font-family="Calibri, Calibri_MSFontService, sans-serif"
       font-weight="400"
       font-size="43px"
       transform="translate(540.419,1586)"
       id="text21">Layer 2</text>
    <path
       d="m 254.5,1457 c 0,-5.8 4.701,-10.5 10.5,-10.5 h 675 c 5.799,0 10.5,4.7 10.5,10.5 v 42 c 0,5.8 -4.701,10.5 -10.5,10.5 H 265 c -5.799,0 -10.5,-4.7 -10.5,-10.5 z"
       stroke="#ffffff"
       stroke-width="5.33333"
       stroke-miterlimit="8"
       fill="#767171"
       fill-rule="evenodd"
       id="path23" />
    <text
       fill="#ffffff"
       font-family="Calibri, Calibri_MSFontService, sans-serif"
       font-weight="400"
       font-size="43px"
       transform="translate(540.419,1492)"
       id="text25">Layer 3</text>
    <path
       d="m 1290.5,1232 c 0,-45.01 36.49,-81.5 81.5,-81.5 h 633 c 45.01,0 81.5,36.49 81.5,81.5 v 326 c 0,45.01 -36.49,81.5 -81.5,81.5 h -633 c -45.01,0 -81.5,-36.49 -81.5,-81.5 z"
       stroke="#a9d18e"
       stroke-width="13.3333"
       stroke-miterlimit="8"
       fill="#bfbfbf"
       fill-rule="evenodd"
       id="path27" />
    <path
       d="m 1584,1125.17 c 0,-6.72 5.45,-12.17 12.17,-12.17 h 183.66 c 6.72,0 12.17,5.45 12.17,12.17 v 48.66 c 0,6.72 -5.45,12.17 -12.17,12.17 h -183.66 c -6.72,0 -12.17,-5.45 -12.17,-12.17 z"
       stroke="#a9d18e"
       stroke-width="8"
       stroke-miterlimit="8"
       fill="#ffd966"
       fill-rule="evenodd"
       id="path29" />
    <text
       font-family="Calibri, Calibri_MSFontService, sans-serif"
       font-weight="400"
       font-size="59px"
       transform="translate(1613.87,1169)"
       id="text31">Image</text>
    <path
       d="m 1340.5,1528.17 c 0,-5.89 4.78,-10.67 10.67,-10.67 h 674.66 c 5.89,0 10.67,4.78 10.67,10.67 v 42.66 c 0,5.89 -4.78,10.67 -10.67,10.67 h -674.66 c -5.89,0 -10.67,-4.78 -10.67,-10.67 z"
       stroke="#ffffff"
       stroke-width="5.33333"
       stroke-miterlimit="8"
       fill="#bf9000"
       fill-rule="evenodd"
       id="path33" />
    <text
       fill="#ffffff"
       font-family="Calibri, Calibri_MSFontService, sans-serif"
       font-weight="400"
       font-size="43px"
       transform="translate(1497.4,1563)"
       id="text35">Base Image Reference</text>
    <path
       d="m 1340.5,1434 c 0,-5.8 4.7,-10.5 10.5,-10.5 h 675 c 5.8,0 10.5,4.7 10.5,10.5 v 42 c 0,5.8 -4.7,10.5 -10.5,10.5 h -675 c -5.8,0 -10.5,-4.7 -10.5,-10.5 z"
       stroke="#ffffff"
       stroke-width="5.33333"
       stroke-miterlimit="8"
       fill="#767171"
       fill-rule="evenodd"
       id="path37" />
    <text
       fill="#ffffff"
       font-family="Calibri, Calibri_MSFontService, sans-serif"
       font-weight="400"
       font-size="43px"
       transform="translate(1625.84,1469)"
       id="text41">Layer <tspan
   font-size="43px"
   x="102.187"
   y="0"
   id="tspan39">4</tspan></text>
    <path
       d="m 1340.5,1340 c 0,-5.8 4.7,-10.5 10.5,-10.5 h 675 c 5.8,0 10.5,4.7 10.5,10.5 v 42 c 0,5.8 -4.7,10.5 -10.5,10.5 h -675 c -5.8,0 -10.5,-4.7 -10.5,-10.5 z"
       stroke="#ffffff"
       stroke-width="5.33333"
       stroke-miterlimit="8"
       fill="#767171"
       fill-rule="evenodd"
       id="path43" />
    <text
       fill="#ffffff"
       font-family="Calibri, Calibri_MSFontService, sans-serif"
       font-weight="400"
       font-size="43px"
       transform="translate(1625.84,1375)"
       id="text47">Layer <tspan
   font-size="43px"
   x="102.187"
   y="0"
   id="tspan45">5</tspan></text>
    <path
       d="m 1340.5,1245.17 c 0,-5.89 4.78,-10.67 10.67,-10.67 h 674.66 c 5.89,0 10.67,4.78 10.67,10.67 v 42.66 c 0,5.89 -4.78,10.67 -10.67,10.67 h -674.66 c -5.89,0 -10.67,-4.78 -10.67,-10.67 z"
       stroke="#ffffff"
       stroke-width="5.33333"
       stroke-miterlimit="8"
       fill="#767171"
       fill-rule="evenodd"
       id="path49" />
    <text
       fill="#ffffff"
       font-family="Calibri, Calibri_MSFontService, sans-serif"
       font-weight="400"
       font-size="43px"
       transform="translate(1625.84,1280)"
       id="text53">Layer <tspan
   font-size="43px"
   x="102.187"
   y="0"
   id="tspan51">6</tspan></text>
    <path
       d="M 1315.5,1565.75 H 1055 v 15.75 l -31.5,-31.5 31.5,-31.5 v 15.75 h 260.5 z"
       stroke="#bf9000"
       stroke-width="5.33333"
       stroke-miterlimit="8"
       fill="#ffe699"
       fill-rule="evenodd"
       id="path55" />
    <path
       d="m 451.5,854.501 c 0,-34.794 28.207,-63.001 63.001,-63.001 H 1184.5 c 34.79,0 63,28.207 63,63.001 V 1106.5 c 0,34.79 -28.21,63 -63,63 H 514.501 c -34.794,0 -63.001,-28.21 -63.001,-63 z"
       stroke="#a9d18e"
       stroke-width="13.3333"
       stroke-miterlimit="8"
       fill="#bfbfbf"
       fill-rule="evenodd"
       id="path57" />
    <path
       d="M 745,767.167 C 745,760.447 750.447,755 757.167,755 h 183.666 c 6.72,0 12.167,5.447 12.167,12.167 v 48.666 C 953,822.553 947.553,828 940.833,828 H 757.167 C 750.447,828 745,822.553 745,815.833 Z"
       stroke="#a9d18e"
       stroke-width="8"
       stroke-miterlimit="8"
       fill="#ffd966"
       fill-rule="evenodd"
       id="path59" />
    <text
       font-family="Calibri, Calibri_MSFontService, sans-serif"
       font-weight="400"
       font-size="59px"
       transform="translate(775.433,811)"
       id="text61">Image’</text>
    <path
       d="m 501.5,1069 c 0,-5.8 4.701,-10.5 10.5,-10.5 h 675 c 5.8,0 10.5,4.7 10.5,10.5 v 42 c 0,5.8 -4.7,10.5 -10.5,10.5 H 512 c -5.799,0 -10.5,-4.7 -10.5,-10.5 z"
       stroke="#ffffff"
       stroke-width="5.33333"
       stroke-miterlimit="8"
       fill="#bf9000"
       fill-rule="evenodd"
       id="path63" />
    <text
       fill="#ffffff"
       font-family="Calibri, Calibri_MSFontService, sans-serif"
       font-weight="400"
       font-size="43px"
       transform="translate(658.964,1104)"
       id="text65">Base Image Reference</text>
    <path
       d="m 501.5,975 c 0,-5.799 4.701,-10.5 10.5,-10.5 h 675 c 5.8,0 10.5,4.701 10.5,10.5 v 42 c 0,5.8 -4.7,10.5 -10.5,10.5 H 512 c -5.799,0 -10.5,-4.7 -10.5,-10.5 z"
       stroke="#ffffff"
       stroke-width="5.33333"
       stroke-miterlimit="8"
       fill="#767171"
       fill-rule="evenodd"
       id="path67" />
    <text
       fill="#ffffff"
       font-family="Calibri, Calibri_MSFontService, sans-serif"
       font-weight="400"
       font-size="43px"
       transform="translate(782.07,1010)"
       id="text71">Layer <tspan
   font-size="43px"
   x="102.187"
   y="0"
   id="tspan69">4’</tspan></text>
    <path
       d="m 501.5,880.167 c 0,-5.891 4.776,-10.667 10.667,-10.667 h 674.663 c 5.89,0 10.67,4.776 10.67,10.667 v 42.666 c 0,5.891 -4.78,10.667 -10.67,10.667 H 512.167 c -5.891,0 -10.667,-4.776 -10.667,-10.667 z"
       stroke="#ffffff"
       stroke-width="5.33333"
       stroke-miterlimit="8"
       fill="#767171"
       fill-rule="evenodd"
       id="path73" />
    <text
       fill="#ffffff"
       font-family="Calibri, Calibri_MSFontService, sans-serif"
       font-weight="400"
       font-size="43px"
       transform="translate(782.07,915)"
       id="text77">Layer <tspan
   font-size="43px"
   x="102.187"
   y="0"
   id="tspan75">5’</tspan></text>
    <path
       d="m 802.117,1148.95 -116.05,160.89 12.843,9.27 -44.213,7.15 -7.159,-44.21 12.843,9.27 116.05,-160.9 z"
       stroke="#bf9000"
       stroke-width="5.33333"
       stroke-miterlimit="8"
       fill="#ffe699"
       fill-rule="evenodd"
       id="path79" />
  </g>
  <rect
     style="fill:none"
     id="rect297"
     width="2046.1017"
     height="1069.8304"
     x="89.491524"
     y="724.06781"
     clip-path="url(#clipPath311)"
     transform="translate(-174.77966,-720)" />
  <rect
     style="fill:none"
     id="rect301"
     width="1960.6781"
     height="1053.5594"
     x="166.77966"
     y="724.06775"
     clip-path="url(#clipPath307)"
     transform="translate(-174.77966,-720)" />
</svg>
