<?xml version="1.0" encoding="UTF-8" standalone="no"?>
<svg
   width="2217.6785"
   height="1104.5248"
   overflow="hidden"
   version="1.1"
   id="svg65"
   sodipodi:docname="container_instances.svg"
   inkscape:version="1.2 (dc2aedaf03, 2022-05-15)"
   xmlns:inkscape="http://www.inkscape.org/namespaces/inkscape"
   xmlns:sodipodi="http://sodipodi.sourceforge.net/DTD/sodipodi-0.dtd"
   xmlns="http://www.w3.org/2000/svg"
   xmlns:svg="http://www.w3.org/2000/svg">
  <sodipodi:namedview
     id="namedview67"
     pagecolor="#ffffff"
     bordercolor="#666666"
     borderopacity="1.0"
     inkscape:showpageshadow="2"
     inkscape:pageopacity="0.0"
     inkscape:pagecheckerboard="0"
     inkscape:deskcolor="#d1d1d1"
     showgrid="false"
     inkscape:zoom="0.34766083"
     inkscape:cx="1617.9562"
     inkscape:cy="1029.7392"
     inkscape:window-width="1920"
     inkscape:window-height="1017"
     inkscape:window-x="-8"
     inkscape:window-y="-8"
     inkscape:window-maximized="1"
     inkscape:current-layer="svg65" />
  <defs
     id="defs5">
    <clipPath
       id="clip0">
      <rect
         x="0"
         y="0"
         width="2880"
         height="1920"
         id="rect2" />
    </clipPath>
    <clipPath
       clipPathUnits="userSpaceOnUse"
       id="clipPath227">
      <rect
         style="fill:none"
         id="rect229"
         width="2217.6785"
         height="1104.5248"
         x="270.37845"
         y="526.37506" />
    </clipPath>
  </defs>
  <g
     clip-path="url(#clipPath227)"
     id="g63"
     transform="translate(-270.37845,-526.37506)">
    <rect
       x="0"
       y="0"
       width="2880"
       height="1920"
       fill="#ffffff"
       id="rect7" />
    <path
       d="m 979.5,1178 c 0,-45.01 36.49,-81.5 81.5,-81.5 h 633 c 45.01,0 81.5,36.49 81.5,81.5 v 326 c 0,45.01 -36.49,81.5 -81.5,81.5 h -633 c -45.01,0 -81.5,-36.49 -81.5,-81.5 z"
       stroke="#a9d18e"
       stroke-width="13.3333"
       stroke-miterlimit="8"
       fill="#bfbfbf"
       fill-rule="evenodd"
       id="path9" />
    <path
       d="m 1273,1071.17 c 0,-6.72 5.45,-12.17 12.17,-12.17 h 183.66 c 6.72,0 12.17,5.45 12.17,12.17 v 48.66 c 0,6.72 -5.45,12.17 -12.17,12.17 h -183.66 c -6.72,0 -12.17,-5.45 -12.17,-12.17 z"
       stroke="#a9d18e"
       stroke-width="8"
       stroke-miterlimit="8"
       fill="#ffd966"
       fill-rule="evenodd"
       id="path11" />
    <text
       font-family="Calibri, Calibri_MSFontService, sans-serif"
       font-weight="400"
       font-size="59px"
       transform="translate(1302.94,1115)"
       id="text13">Image</text>
    <path
       d="m 1029.5,1474 c 0,-5.8 4.7,-10.5 10.5,-10.5 h 675 c 5.8,0 10.5,4.7 10.5,10.5 v 42 c 0,5.8 -4.7,10.5 -10.5,10.5 h -675 c -5.8,0 -10.5,-4.7 -10.5,-10.5 z"
       stroke="#ffffff"
       stroke-width="5.33333"
       stroke-miterlimit="8"
       fill="#767171"
       fill-rule="evenodd"
       id="path15" />
    <text
       fill="#ffffff"
       font-family="Calibri, Calibri_MSFontService, sans-serif"
       font-weight="400"
       font-size="43px"
       transform="translate(1314.92,1509)"
       id="text17">Layer 1</text>
    <path
       d="m 1029.5,1380 c 0,-5.8 4.7,-10.5 10.5,-10.5 h 675 c 5.8,0 10.5,4.7 10.5,10.5 v 42 c 0,5.8 -4.7,10.5 -10.5,10.5 h -675 c -5.8,0 -10.5,-4.7 -10.5,-10.5 z"
       stroke="#ffffff"
       stroke-width="5.33333"
       stroke-miterlimit="8"
       fill="#767171"
       fill-rule="evenodd"
       id="path19" />
    <text
       fill="#ffffff"
       font-family="Calibri, Calibri_MSFontService, sans-serif"
       font-weight="400"
       font-size="43px"
       transform="translate(1314.92,1415)"
       id="text21">Layer 2</text>
    <path
       d="m 1029.5,1285.17 c 0,-5.89 4.78,-10.67 10.67,-10.67 h 674.66 c 5.89,0 10.67,4.78 10.67,10.67 v 42.66 c 0,5.89 -4.78,10.67 -10.67,10.67 h -674.66 c -5.89,0 -10.67,-4.78 -10.67,-10.67 z"
       stroke="#ffffff"
       stroke-width="5.33333"
       stroke-miterlimit="8"
       fill="#767171"
       fill-rule="evenodd"
       id="path23" />
    <text
       fill="#ffffff"
       font-family="Calibri, Calibri_MSFontService, sans-serif"
       font-weight="400"
       font-size="43px"
       transform="translate(1314.92,1320)"
       id="text25">Layer 3</text>
    <path
       d="m 1029.5,1191 c 0,-5.8 4.7,-10.5 10.5,-10.5 h 675 c 5.8,0 10.5,4.7 10.5,10.5 v 42 c 0,5.8 -4.7,10.5 -10.5,10.5 h -675 c -5.8,0 -10.5,-4.7 -10.5,-10.5 z"
       stroke="#ffffff"
       stroke-width="5.33333"
       stroke-miterlimit="8"
       fill="#767171"
       fill-rule="evenodd"
       id="path27" />
    <text
       fill="#ffffff"
       font-family="Calibri, Calibri_MSFontService, sans-serif"
       font-weight="400"
       font-size="43px"
       transform="translate(1314.92,1226)"
       id="text29">Layer 4</text>
    <path
       d="M 313,662.667 C 313,635.237 335.237,613 362.667,613 h 860.663 c 27.43,0 49.67,22.237 49.67,49.667 v 198.666 c 0,27.43 -22.24,49.667 -49.67,49.667 H 362.667 C 335.237,911 313,888.763 313,861.333 Z"
       stroke="#8faadc"
       stroke-width="16"
       stroke-miterlimit="8"
       fill="#deebf7"
       fill-rule="evenodd"
       id="path31" />
    <path
       d="m 613.5,586 c 0,-7.456 6.044,-13.5 13.5,-13.5 h 337 c 7.456,0 13.5,6.044 13.5,13.5 v 54 c 0,7.456 -6.044,13.5 -13.5,13.5 H 627 c -7.456,0 -13.5,-6.044 -13.5,-13.5 z"
       stroke="#8faadc"
       stroke-width="13.3333"
       stroke-miterlimit="8"
       fill="#ffd966"
       fill-rule="evenodd"
       id="path33" />
    <text
       font-family="Calibri, Calibri_MSFontService, sans-serif"
       font-weight="400"
       font-size="59px"
       transform="translate(676.968,632)"
       id="text35">Container</text>
    <path
       d="m 445.5,701.167 c 0,-5.891 4.776,-10.667 10.667,-10.667 h 674.663 c 5.89,0 10.67,4.776 10.67,10.667 v 42.666 c 0,5.891 -4.78,10.667 -10.67,10.667 H 456.167 c -5.891,0 -10.667,-4.776 -10.667,-10.667 z"
       stroke="#000000"
       stroke-width="5.33333"
       stroke-miterlimit="8"
       fill="#2f5597"
       fill-rule="evenodd"
       id="path37" />
    <text
       fill="#ffffff"
       font-family="Calibri, Calibri_MSFontService, sans-serif"
       font-weight="400"
       font-size="43px"
       transform="translate(642.338,736)"
       id="text39">Read/Write Layer</text>
    <path
       d="m 447.5,810.167 c 0,-5.891 4.776,-10.667 10.667,-10.667 h 674.663 c 5.89,0 10.67,4.776 10.67,10.667 v 42.666 c 0,5.891 -4.78,10.667 -10.67,10.667 H 458.167 c -5.891,0 -10.667,-4.776 -10.667,-10.667 z"
       stroke="#ffffff"
       stroke-width="5.33333"
       stroke-miterlimit="8"
       fill="#bf9000"
       fill-rule="evenodd"
       id="path41" />
    <text
       fill="#ffffff"
       font-family="Calibri, Calibri_MSFontService, sans-serif"
       font-weight="400"
       font-size="43px"
       transform="translate(650.29,845)"
       id="text43">Image Reference</text>
    <path
       d="m 1480,662.667 c 0,-27.43 22.24,-49.667 49.67,-49.667 h 860.66 c 27.43,0 49.67,22.237 49.67,49.667 v 198.666 c 0,27.43 -22.24,49.667 -49.67,49.667 H 1529.67 C 1502.24,911 1480,888.763 1480,861.333 Z"
       stroke="#8faadc"
       stroke-width="16"
       stroke-miterlimit="8"
       fill="#deebf7"
       fill-rule="evenodd"
       id="path45" />
    <path
       d="m 1780.5,586 c 0,-7.456 6.04,-13.5 13.5,-13.5 h 337 c 7.46,0 13.5,6.044 13.5,13.5 v 54 c 0,7.456 -6.04,13.5 -13.5,13.5 h -337 c -7.46,0 -13.5,-6.044 -13.5,-13.5 z"
       stroke="#8faadc"
       stroke-width="13.3333"
       stroke-miterlimit="8"
       fill="#ffd966"
       fill-rule="evenodd"
       id="path47" />
    <text
       font-family="Calibri, Calibri_MSFontService, sans-serif"
       font-weight="400"
       font-size="59px"
       transform="translate(1844.26,632)"
       id="text49">Container’</text>
    <path
       d="m 1613.5,701.167 c 0,-5.891 4.78,-10.667 10.67,-10.667 h 673.66 c 5.89,0 10.67,4.776 10.67,10.667 v 42.666 c 0,5.891 -4.78,10.667 -10.67,10.667 h -673.66 c -5.89,0 -10.67,-4.776 -10.67,-10.667 z"
       stroke="#000000"
       stroke-width="5.33333"
       stroke-miterlimit="8"
       fill="#2f5597"
       fill-rule="evenodd"
       id="path51" />
    <text
       fill="#ffffff"
       font-family="Calibri, Calibri_MSFontService, sans-serif"
       font-weight="400"
       font-size="43px"
       transform="translate(1803.35,736)"
       id="text53">Read/Write Layer’</text>
    <path
       d="m 1614.5,810.167 c 0,-5.891 4.78,-10.667 10.67,-10.667 h 674.66 c 5.89,0 10.67,4.776 10.67,10.667 v 42.666 c 0,5.891 -4.78,10.667 -10.67,10.667 h -674.66 c -5.89,0 -10.67,-4.776 -10.67,-10.667 z"
       stroke="#ffffff"
       stroke-width="5.33333"
       stroke-miterlimit="8"
       fill="#bf9000"
       fill-rule="evenodd"
       id="path55" />
    <text
       fill="#ffffff"
       font-family="Calibri, Calibri_MSFontService, sans-serif"
       font-weight="400"
       font-size="43px"
       transform="translate(1817.58,845)"
       id="text57">Image Reference</text>
    <path
       d="m 1829.99,905.592 -240.42,144.578 8.16,13.57 -43.46,-10.81 10.82,-43.47 8.16,13.57 240.41,-144.579 z"
       stroke="#bf9000"
       stroke-width="5.33333"
       stroke-miterlimit="8"
       fill="#ffe699"
       fill-rule="evenodd"
       id="path59" />
    <path
       d="M 0,15.835 H 280.542 V 0 l 31.67,31.6702 -31.67,31.67 V 47.5052 H 0 Z"
       stroke="#bf9000"
       stroke-width="5.33333"
       stroke-miterlimit="8"
       fill="#ffe699"
       fill-rule="evenodd"
       transform="matrix(0.856969,0.515368,0.515368,-0.856969,897.228,919.55)"
       id="path61" />
  </g>
</svg>
