<?xml version="1.0" encoding="UTF-8" standalone="no"?>
<svg
   width="1464.0706"
   height="851.40454"
   overflow="hidden"
   version="1.1"
   id="svg51"
   sodipodi:docname="container2.svg"
   inkscape:version="1.2 (dc2aedaf03, 2022-05-15)"
   xmlns:inkscape="http://www.inkscape.org/namespaces/inkscape"
   xmlns:sodipodi="http://sodipodi.sourceforge.net/DTD/sodipodi-0.dtd"
   xmlns="http://www.w3.org/2000/svg"
   xmlns:svg="http://www.w3.org/2000/svg">
  <sodipodi:namedview
     id="namedview53"
     pagecolor="#ffffff"
     bordercolor="#666666"
     borderopacity="1.0"
     inkscape:showpageshadow="2"
     inkscape:pageopacity="0.0"
     inkscape:pagecheckerboard="0"
     inkscape:deskcolor="#d1d1d1"
     showgrid="false"
     inkscape:zoom="0.34766083"
     inkscape:cx="1617.9562"
     inkscape:cy="1075.7611"
     inkscape:window-width="1920"
     inkscape:window-height="1017"
     inkscape:window-x="-8"
     inkscape:window-y="-8"
     inkscape:window-maximized="1"
     inkscape:current-layer="svg51" />
  <defs
     id="defs5">
    <clipPath
       id="clip0">
      <rect
         x="0"
         y="0"
         width="2880"
         height="1920"
         id="rect2" />
    </clipPath>
    <clipPath
       clipPathUnits="userSpaceOnUse"
       id="clipPath269">
      <rect
         style="fill:none;stroke-width:0.9103"
         id="rect271"
         width="1464.0706"
         height="851.40454"
         x="431.45499"
         y="405.56769"
         ry="0" />
    </clipPath>
  </defs>
  <g
     clip-path="url(#clipPath269)"
     id="g49"
     transform="translate(-431.45499,-405.56769)">
    <rect
       x="0"
       y="0"
       width="2880"
       height="1920"
       fill="#ffffff"
       id="rect7" />
    <path
       d="M 897,598.502 C 897,530.294 952.294,475 1020.5,475 h 713 c 68.21,0 123.5,55.294 123.5,123.502 V 1092.5 c 0,68.21 -55.29,123.5 -123.5,123.5 h -713 C 952.294,1216 897,1160.71 897,1092.5 Z"
       stroke="#8faadc"
       stroke-width="16"
       stroke-miterlimit="8"
       fill="#deebf7"
       fill-rule="evenodd"
       id="path9" />
    <path
       d="m 1197.5,448.834 c 0,-7.364 5.97,-13.334 13.33,-13.334 h 337.34 c 7.36,0 13.33,5.97 13.33,13.334 v 53.333 c 0,7.363 -5.97,13.333 -13.33,13.333 h -337.34 c -7.36,0 -13.33,-5.97 -13.33,-13.333 z"
       stroke="#8faadc"
       stroke-width="13.3333"
       stroke-miterlimit="8"
       fill="#ffd966"
       fill-rule="evenodd"
       id="path11" />
    <text
       font-family="Calibri, Calibri_MSFontService, sans-serif"
       font-weight="400"
       font-size="59px"
       transform="translate(1260.61,494)"
       id="text13">Container</text>
    <path
       d="m 1029.5,563.167 c 0,-5.891 4.78,-10.667 10.67,-10.667 h 674.66 c 5.89,0 10.67,4.776 10.67,10.667 v 42.666 c 0,5.891 -4.78,10.667 -10.67,10.667 h -674.66 c -5.89,0 -10.67,-4.776 -10.67,-10.667 z"
       stroke="#000000"
       stroke-width="5.33333"
       stroke-miterlimit="8"
       fill="#2f5597"
       fill-rule="evenodd"
       id="path15" />
    <text
       fill="#ffffff"
       font-family="Calibri, Calibri_MSFontService, sans-serif"
       font-weight="400"
       font-size="43px"
       transform="translate(1225.98,599)"
       id="text17">Read/Write Layer</text>
    <path
       d="m 981.5,765.168 c 0,-45.104 36.56,-81.668 81.67,-81.668 h 632.66 c 45.11,0 81.67,36.564 81.67,81.668 v 326.662 c 0,45.11 -36.56,81.67 -81.67,81.67 h -632.66 c -45.11,0 -81.67,-36.56 -81.67,-81.67 z"
       stroke="#a9d18e"
       stroke-width="13.3333"
       stroke-miterlimit="8"
       fill="#bfbfbf"
       fill-rule="evenodd"
       id="path19" />
    <path
       d="m 1275,659.167 c 0,-6.72 5.45,-12.167 12.17,-12.167 h 183.66 c 6.72,0 12.17,5.447 12.17,12.167 v 48.666 c 0,6.72 -5.45,12.167 -12.17,12.167 h -183.66 c -6.72,0 -12.17,-5.447 -12.17,-12.167 z"
       stroke="#a9d18e"
       stroke-width="8"
       stroke-miterlimit="8"
       fill="#ffd966"
       fill-rule="evenodd"
       id="path21" />
    <text
       font-family="Calibri, Calibri_MSFontService, sans-serif"
       font-weight="400"
       font-size="59px"
       transform="translate(1304.82,703)"
       id="text23">Image</text>
    <path
       d="m 1031.5,1062 c 0,-5.8 4.7,-10.5 10.5,-10.5 h 675 c 5.8,0 10.5,4.7 10.5,10.5 v 42 c 0,5.8 -4.7,10.5 -10.5,10.5 h -675 c -5.8,0 -10.5,-4.7 -10.5,-10.5 z"
       stroke="#ffffff"
       stroke-width="5.33333"
       stroke-miterlimit="8"
       fill="#767171"
       fill-rule="evenodd"
       id="path25" />
    <text
       fill="#ffffff"
       font-family="Calibri, Calibri_MSFontService, sans-serif"
       font-weight="400"
       font-size="43px"
       transform="translate(1316.79,1097)"
       id="text27">Layer 1</text>
    <path
       d="m 1031.5,967.167 c 0,-5.891 4.78,-10.667 10.67,-10.667 h 674.66 c 5.89,0 10.67,4.776 10.67,10.667 v 42.663 c 0,5.89 -4.78,10.67 -10.67,10.67 h -674.66 c -5.89,0 -10.67,-4.78 -10.67,-10.67 z"
       stroke="#ffffff"
       stroke-width="5.33333"
       stroke-miterlimit="8"
       fill="#767171"
       fill-rule="evenodd"
       id="path29" />
    <text
       fill="#ffffff"
       font-family="Calibri, Calibri_MSFontService, sans-serif"
       font-weight="400"
       font-size="43px"
       transform="translate(1316.79,1002)"
       id="text31">Layer 2</text>
    <path
       d="m 1031.5,873 c 0,-5.799 4.7,-10.5 10.5,-10.5 h 675 c 5.8,0 10.5,4.701 10.5,10.5 v 42 c 0,5.799 -4.7,10.5 -10.5,10.5 h -675 c -5.8,0 -10.5,-4.701 -10.5,-10.5 z"
       stroke="#ffffff"
       stroke-width="5.33333"
       stroke-miterlimit="8"
       fill="#767171"
       fill-rule="evenodd"
       id="path33" />
    <text
       fill="#ffffff"
       font-family="Calibri, Calibri_MSFontService, sans-serif"
       font-weight="400"
       font-size="43px"
       transform="translate(1316.79,908)"
       id="text35">Layer 3</text>
    <path
       d="m 1031.5,779 c 0,-5.799 4.7,-10.5 10.5,-10.5 h 675 c 5.8,0 10.5,4.701 10.5,10.5 v 42 c 0,5.799 -4.7,10.5 -10.5,10.5 h -675 c -5.8,0 -10.5,-4.701 -10.5,-10.5 z"
       stroke="#ffffff"
       stroke-width="5.33333"
       stroke-miterlimit="8"
       fill="#767171"
       fill-rule="evenodd"
       id="path37" />
    <text
       fill="#ffffff"
       font-family="Calibri, Calibri_MSFontService, sans-serif"
       font-weight="400"
       font-size="43px"
       transform="translate(1316.79,814)"
       id="text39">Layer 4</text>
    <path
       d="m 855.5,1173.5 c -31.204,0 -56.5,-4.22 -56.5,-9.42 V 937.916 c 0,-5.2 -25.296,-9.416 -56.5,-9.416 31.204,0 56.5,-4.216 56.5,-9.416 V 692.916 c 0,-5.2 25.296,-9.416 56.5,-9.416"
       stroke="#a9d18e"
       stroke-width="13.3333"
       stroke-miterlimit="8"
       fill="none"
       fill-rule="evenodd"
       id="path41" />
    <rect
       x="471"
       y="896"
       width="200"
       height="62"
       fill="#c00000"
       id="rect43" />
    <text
       fill="#ffffff"
       font-family="Calibri, Calibri_MSFontService, sans-serif"
       font-weight="400"
       font-size="43px"
       transform="translate(480.359,941)"
       id="text47">Read<tspan
   font-size="43px"
   x="86.580002"
   y="0"
   id="tspan45">-</tspan>Only</text>
  </g>
</svg>
