<?xml version="1.0" encoding="UTF-8"?>
<svg class="dicon" width="135.236" height="25" data-testid="svg_DockerHubIcon" version="1.1" viewBox="0 0 135.236 25" xmlns="http://www.w3.org/2000/svg">
 <rect x=".00331855" y=".00149871" width="135.234" height="24.9958" fill="#1c90ed" stroke-width=".637476"/>
 <path d="m63.12 14.601c0.292-0.29 0.633-0.519 1.023-0.687a3.12 3.12 0 0 1 1.25-0.252c0.402 0 0.773 0.067 1.114 0.202 0.341 0.134 0.667 0.333 0.977 0.595 0.183 0.147 0.39 0.22 0.62 0.22a0.907 0.907 0 0 0 0.68-0.275 0.943 0.943 0 0 0 0.27-0.687 0.932 0.932 0 0 0-0.329-0.724c-0.937-0.83-2.048-1.245-3.332-1.245-1.412 0-2.617 0.5-3.615 1.502s-1.497 2.211-1.497 3.628 0.499 2.626 1.497 3.628c0.998 1.001 2.203 1.502 3.615 1.502 1.278 0 2.39-0.415 3.332-1.245a0.968 0.968 0 0 0 0.302-0.706 0.92 0.92 0 0 0-0.95-0.953 1.021 1.021 0 0 0-0.602 0.202c-0.305 0.263-0.627 0.46-0.968 0.591-0.34 0.131-0.712 0.197-1.114 0.197a3.12 3.12 0 0 1-1.25-0.252 3.199 3.199 0 0 1-1.963-2.964 3.194 3.194 0 0 1 0.94-2.277zm15.771-2.267a1.055 1.055 0 0 0-0.205-0.307 0.893 0.893 0 0 0-0.301-0.206 0.951 0.951 0 0 0-0.374-0.073 0.926 0.926 0 0 0-0.512 0.146l-5.46 3.564v-7.146a0.93 0.93 0 0 0-0.278-0.683 0.913 0.913 0 0 0-0.67-0.279 0.924 0.924 0 0 0-0.68 0.28 0.929 0.929 0 0 0-0.28 0.682v12.735c0 0.262 0.093 0.488 0.28 0.678a0.915 0.915 0 0 0 0.68 0.283 0.906 0.906 0 0 0 0.67-0.283 0.935 0.935 0 0 0 0.279-0.678v-3.308l1.114-0.733 4.218 4.755a0.88 0.88 0 0 0 0.639 0.247 0.951 0.951 0 0 0 0.374-0.073 0.902 0.902 0 0 0 0.301-0.206c0.085-0.088 0.154-0.19 0.205-0.307a0.885 0.885 0 0 0 0.078-0.367 0.97 0.97 0 0 0-0.265-0.668l-3.925-4.434 3.825-2.492c0.244-0.165 0.365-0.418 0.365-0.76a0.887 0.887 0 0 0-0.078-0.367zm-21.838 5.785a3.255 3.255 0 0 1-1.702 1.718 3.08 3.08 0 0 1-1.251 0.257c-0.45 0-0.87-0.086-1.26-0.257a3.225 3.225 0 0 1-1.013-0.691 3.284 3.284 0 0 1-0.68-1.022 3.128 3.128 0 0 1-0.252-1.246c0-0.44 0.084-0.855 0.251-1.246 0.168-0.39 0.395-0.731 0.68-1.022 0.286-0.29 0.624-0.52 1.014-0.691s0.81-0.257 1.26-0.257c0.444 0 0.86 0.086 1.25 0.257a3.257 3.257 0 0 1 1.703 1.717c0.168 0.388 0.251 0.802 0.251 1.242s-0.083 0.854-0.251 1.241zm0.662-4.869c-1.01-1.002-2.215-1.502-3.615-1.502-1.412 0-2.617 0.5-3.615 1.502s-1.498 2.211-1.498 3.628 0.5 2.626 1.498 3.628c0.998 1.001 2.203 1.502 3.615 1.502 1.4 0 2.605-0.5 3.615-1.502 0.998-0.99 1.497-2.199 1.497-3.628a5.3 5.3 0 0 0-0.379-1.97 5.031 5.031 0 0 0-1.118-1.658zm41.03-0.861a1.797 1.797 0 0 0-0.644-0.39 3.775 3.775 0 0 0-0.85-0.197 7.268 7.268 0 0 0-0.862-0.054 4.97 4.97 0 0 0-1.716 0.293 5.234 5.234 0 0 0-1.489 0.842v-0.183a0.92 0.92 0 0 0-0.278-0.673 0.913 0.913 0 0 0-0.671-0.28 0.923 0.923 0 0 0-0.68 0.28 0.92 0.92 0 0 0-0.279 0.673v8.355a0.92 0.92 0 0 0 0.279 0.674c0.185 0.186 0.412 0.28 0.68 0.28a0.914 0.914 0 0 0 0.671-0.28 0.92 0.92 0 0 0 0.278-0.674v-4.177a3.232 3.232 0 0 1 0.936-2.277c0.29-0.29 0.629-0.519 1.018-0.687 0.39-0.168 0.807-0.252 1.25-0.252 0.451 0 0.868 0.077 1.252 0.23 0.152 0.067 0.286 0.1 0.401 0.1a0.95 0.95 0 0 0 0.375-0.073 0.89 0.89 0 0 0 0.3-0.207c0.086-0.088 0.154-0.19 0.206-0.306a0.913 0.913 0 0 0 0.078-0.376 0.853 0.853 0 0 0-0.256-0.641zm-16.708 3.536c0.097-0.336 0.247-0.643 0.448-0.92 0.2-0.278 0.438-0.516 0.711-0.715 0.274-0.199 0.576-0.353 0.904-0.463a3.175 3.175 0 0 1 2.023 0 3.279 3.279 0 0 1 1.606 1.177c0.204 0.278 0.358 0.585 0.461 0.921zm6.692-2.675c-1.01-1.002-2.216-1.502-3.615-1.502-1.412 0-2.618 0.5-3.616 1.502s-1.497 2.211-1.497 3.628 0.5 2.626 1.497 3.628c0.998 1.001 2.204 1.502 3.616 1.502 1.284 0 2.398-0.415 3.341-1.245a0.954 0.954 0 0 0 0.274-0.688 0.927 0.927 0 0 0-0.27-0.682 0.918 0.918 0 0 0-0.68-0.27 0.995 0.995 0 0 0-0.63 0.238 3.011 3.011 0 0 1-0.93 0.55 3.202 3.202 0 0 1-1.105 0.183c-0.353 0-0.693-0.055-1.018-0.165a3.28 3.28 0 0 1-0.895-0.463 3.197 3.197 0 0 1-1.164-1.635h7.23a0.94 0.94 0 0 0 0.959-0.953c0-0.708-0.125-1.367-0.374-1.974a4.991 4.991 0 0 0-1.123-1.654zm-42.988 4.87a3.245 3.245 0 0 1-1.703 1.718c-0.389 0.17-0.806 0.256-1.25 0.256-0.45 0-0.87-0.086-1.26-0.257a3.227 3.227 0 0 1-1.013-0.691 3.272 3.272 0 0 1-0.68-1.022 3.134 3.134 0 0 1-0.251-1.246c0-0.44 0.083-0.855 0.25-1.246 0.168-0.39 0.395-0.731 0.68-1.022a3.24 3.24 0 0 1 1.014-0.691c0.39-0.171 0.81-0.257 1.26-0.257 0.444 0 0.861 0.086 1.25 0.257a3.246 3.246 0 0 1 1.703 1.717c0.168 0.388 0.251 0.802 0.251 1.242a3.1 3.1 0 0 1-0.25 1.241zm1.2-10.77a0.922 0.922 0 0 0-0.949 0.953v4.571c-0.925-0.751-1.993-1.126-3.204-1.126-1.412 0-2.617 0.5-3.615 1.502-0.999 1.002-1.497 2.211-1.497 3.628s0.498 2.626 1.497 3.628c0.998 1.001 2.203 1.502 3.615 1.502 1.4 0 2.605-0.5 3.615-1.502 0.999-0.99 1.498-2.199 1.498-3.628v-8.575a0.94 0.94 0 0 0-0.959-0.953zm-26.46 4.136h3.74v-3.378h-3.74zm-4.419 0h3.74v-3.378h-3.74zm-4.418 0h3.739v-3.378h-3.74v3.378zm-4.42 0h3.74v-3.378h-3.74zm-4.418 0h3.739v-3.378h-3.739zm4.419-4.054h3.739v-3.378h-3.74v3.378zm4.419 0h3.739v-3.378h-3.74v3.378zm4.418 0h3.74v-3.378h-3.74zm0-4.054h3.74v-3.378h-3.74zm15.258 5.668c-0.186-1.352-0.944-2.524-2.323-3.584l-0.792-0.525-0.53 0.789c-0.675 1.014-1.015 2.42-0.903 3.769 0.05 0.474 0.207 1.323 0.698 2.069-0.49 0.262-1.456 0.623-2.739 0.598h-24.591l-0.049 0.282c-0.23 1.355-0.226 5.583 2.537 8.833 2.099 2.47 5.247 3.723 9.356 3.723 8.906 0 15.495-4.075 18.58-11.482 1.213 0.024 3.827 7e-3 5.17-2.541 0.034-0.058 0.115-0.212 0.349-0.695l0.129-0.264-0.755-0.501c-0.817-0.543-2.693-0.742-4.137-0.471z" fill="#fff" fill-rule="evenodd"/>
 <g fill="#fff" fill-rule="evenodd" opacity=".5" aria-label="hub">
  <path d="m105.086 8.32v2.79q0 0.738-0.054 1.404-0.036 0.648-0.072 0.918h0.144q0.468-0.756 1.206-1.098t1.638-0.342q1.584 0 2.556 0.864 0.972 0.846 0.972 2.736v6.408h-2.682v-5.742q0-2.124-1.584-2.124-1.206 0-1.674 0.846-0.45 0.828-0.45 2.394v4.626h-2.682v-13.68z"/>
  <path d="m123.248 12.172v9.828h-2.052l-0.36-1.26h-0.144q-0.468 0.756-1.296 1.098-0.81 0.342-1.728 0.342-1.584 0-2.538-0.846-0.954-0.864-0.954-2.754v-6.408h2.682v5.742q0 1.062 0.378 1.602 0.378 0.522 1.206 0.522 1.224 0 1.674-0.828 0.45-0.846 0.45-2.412v-4.626z"/>
  <path d="m128.738 8.32v3.186q0 0.558-0.036 1.098t-0.072 0.846h0.108q0.396-0.612 1.062-1.026 0.666-0.432 1.728-0.432 1.656 0 2.682 1.296 1.026 1.278 1.026 3.78 0 2.52-1.044 3.816t-2.736 1.296q-1.08 0-1.71-0.378-0.612-0.396-1.008-0.882h-0.18l-0.45 1.08h-2.052v-13.68zm1.926 5.814q-1.044 0-1.476 0.666-0.432 0.648-0.45 1.962v0.288q0 1.422 0.414 2.196 0.432 0.756 1.548 0.756 0.828 0 1.314-0.756 0.486-0.774 0.486-2.214t-0.504-2.16q-0.486-0.738-1.332-0.738z"/>
 </g>
</svg>
