<?xml version="1.0" encoding="UTF-8" standalone="no"?>
<svg
   width="1016.9492"
   height="553.22028"
   overflow="hidden"
   version="1.1"
   id="svg25"
   sodipodi:docname="environment_only.svg"
   inkscape:version="1.2 (dc2aedaf03, 2022-05-15)"
   xmlns:inkscape="http://www.inkscape.org/namespaces/inkscape"
   xmlns:sodipodi="http://sodipodi.sourceforge.net/DTD/sodipodi-0.dtd"
   xmlns="http://www.w3.org/2000/svg"
   xmlns:svg="http://www.w3.org/2000/svg">
  <sodipodi:namedview
     id="namedview27"
     pagecolor="#ffffff"
     bordercolor="#666666"
     borderopacity="1.0"
     inkscape:showpageshadow="2"
     inkscape:pageopacity="0.0"
     inkscape:pagecheckerboard="0"
     inkscape:deskcolor="#d1d1d1"
     showgrid="false"
     inkscape:zoom="0.24583333"
     inkscape:cx="1136.9492"
     inkscape:cy="715.9322"
     inkscape:window-width="1920"
     inkscape:window-height="1017"
     inkscape:window-x="-8"
     inkscape:window-y="-8"
     inkscape:window-maximized="1"
     inkscape:current-layer="svg25" />
  <defs
     id="defs5">
    <clipPath
       id="clip0">
      <rect
         x="0"
         y="0"
         width="2880"
         height="1920"
         id="rect2" />
    </clipPath>
    <clipPath
       clipPathUnits="userSpaceOnUse"
       id="clipPath187">
      <rect
         style="fill:none"
         id="rect189"
         width="1016.9492"
         height="553.22028"
         x="866.44067"
         y="317.28812"
         ry="0" />
    </clipPath>
  </defs>
  <g
     clip-path="url(#clipPath187)"
     id="g23"
     transform="translate(-866.44067,-317.28812)">
    <rect
       x="0"
       y="0"
       width="2880"
       height="1920"
       fill="#ffffff"
       id="rect7" />
    <path
       d="M 897,536.002 C 897,502.311 924.311,475 958.002,475 H 1796 c 33.69,0 61,27.311 61,61.002 V 779.998 C 1857,813.689 1829.69,841 1796,841 H 958.002 C 924.311,841 897,813.689 897,779.998 Z"
       stroke="#8faadc"
       stroke-width="16"
       stroke-miterlimit="8"
       fill="#deebf7"
       fill-rule="evenodd"
       id="path9" />
    <path
       d="m 1197.5,448.834 c 0,-7.364 5.97,-13.334 13.33,-13.334 h 337.34 c 7.36,0 13.33,5.97 13.33,13.334 v 53.333 c 0,7.363 -5.97,13.333 -13.33,13.333 h -337.34 c -7.36,0 -13.33,-5.97 -13.33,-13.333 z"
       stroke="#8faadc"
       stroke-width="13.3333"
       stroke-miterlimit="8"
       fill="#ffd966"
       fill-rule="evenodd"
       id="path11" />
    <text
       font-family="Calibri, Calibri_MSFontService, sans-serif"
       font-weight="400"
       font-size="59px"
       transform="translate(1260.61,494)"
       id="text13">Container</text>
    <path
       d="m 981.5,618.167 c 0,-20.803 16.864,-37.667 37.67,-37.667 h 720.66 c 20.81,0 37.67,16.864 37.67,37.667 v 150.666 c 0,20.803 -16.86,37.667 -37.67,37.667 h -720.66 c -20.806,0 -37.67,-16.864 -37.67,-37.667 z"
       stroke="#000000"
       stroke-width="13.3333"
       stroke-miterlimit="8"
       fill="#bf9000"
       fill-rule="evenodd"
       id="path15" />
    <text
       fill="#ffffff"
       font-family="Calibri, Calibri_MSFontService, sans-serif"
       font-weight="400"
       font-size="59px"
       transform="translate(1225.78,713)"
       id="text17">Environment</text>
    <path
       d="m 1689.5,554.898 h 52.55 v 52.55 h -52.55 z m 25.05,-224.414 c 30.18,0 54.18,7.886 72,23.657 17.83,15.771 26.75,34.13 26.75,55.075 0,11.595 -3.28,22.566 -9.82,32.914 -6.55,10.348 -20.54,24.436 -41.99,42.265 -11.09,9.225 -17.98,16.644 -20.66,22.254 -2.68,5.61 -3.9,15.647 -3.65,30.109 h -47.68 c -0.13,-6.857 -0.19,-11.034 -0.19,-12.53 0,-15.46 2.55,-28.176 7.67,-38.15 5.11,-9.974 15.33,-21.195 30.67,-33.662 15.33,-12.468 24.49,-20.634 27.49,-24.499 4.61,-6.109 6.92,-12.841 6.92,-20.197 0,-10.224 -4.09,-18.982 -12.25,-26.275 -8.17,-7.294 -19.17,-10.941 -33.01,-10.941 -13.34,0 -24.5,3.803 -33.48,11.408 -8.97,7.605 -15.14,19.2 -18.51,34.784 l -48.25,-5.984 c 1.37,-22.317 10.88,-41.267 28.52,-56.852 17.64,-15.584 40.8,-23.376 69.47,-23.376 z"
       stroke="#ed7d31"
       stroke-width="2"
       stroke-linejoin="round"
       stroke-miterlimit="10"
       fill="#f8cbad"
       fill-rule="evenodd"
       id="path19" />
    <text
       fill="#000000"
       fill-opacity="0"
       font-family="Arial, Arial_MSFontService, sans-serif"
       font-size="276.964px"
       x="1616.5601"
       y="572.828"
       id="text21">?</text>
  </g>
</svg>
