<?xml version="1.0" encoding="UTF-8" standalone="no"?>
<svg
   width="1358.6439"
   height="809.49152"
   overflow="hidden"
   version="1.1"
   id="svg2260"
   sodipodi:docname="environment.svg"
   inkscape:version="1.2 (dc2aedaf03, 2022-05-15)"
   xmlns:inkscape="http://www.inkscape.org/namespaces/inkscape"
   xmlns:sodipodi="http://sodipodi.sourceforge.net/DTD/sodipodi-0.dtd"
   xmlns="http://www.w3.org/2000/svg"
   xmlns:svg="http://www.w3.org/2000/svg">
  <sodipodi:namedview
     id="namedview2262"
     pagecolor="#ffffff"
     bordercolor="#666666"
     borderopacity="1.0"
     inkscape:showpageshadow="2"
     inkscape:pageopacity="0.0"
     inkscape:pagecheckerboard="0"
     inkscape:deskcolor="#d1d1d1"
     showgrid="false"
     inkscape:zoom="0.49166667"
     inkscape:cx="1107.4576"
     inkscape:cy="697.62712"
     inkscape:window-width="1920"
     inkscape:window-height="1017"
     inkscape:window-x="-8"
     inkscape:window-y="-8"
     inkscape:window-maximized="1"
     inkscape:current-layer="svg2260" />
  <defs
     id="defs2208">
    <clipPath
       id="clip0">
      <rect
         x="0"
         y="0"
         width="2880"
         height="1920"
         id="rect2205" />
    </clipPath>
    <clipPath
       clipPathUnits="userSpaceOnUse"
       id="clipPath2268">
      <rect
         style="fill:none"
         id="rect2270"
         width="1358.6439"
         height="809.49152"
         x="516.61017"
         y="421.01697" />
    </clipPath>
  </defs>
  <g
     clip-path="url(#clipPath2268)"
     id="g2258"
     transform="translate(-516.61017,-421.01697)">
    <rect
       x="0"
       y="0"
       width="2880"
       height="1920"
       fill="#ffffff"
       id="rect2210" />
    <path
       d="M 897,598.502 C 897,530.294 952.294,475 1020.5,475 h 713 c 68.21,0 123.5,55.294 123.5,123.502 V 1092.5 c 0,68.21 -55.29,123.5 -123.5,123.5 h -713 C 952.294,1216 897,1160.71 897,1092.5 Z"
       stroke="#8faadc"
       stroke-width="16"
       stroke-miterlimit="8"
       fill="#deebf7"
       fill-rule="evenodd"
       id="path2212" />
    <path
       d="m 1197.5,448.834 c 0,-7.364 5.97,-13.334 13.33,-13.334 h 337.34 c 7.36,0 13.33,5.97 13.33,13.334 v 53.333 c 0,7.363 -5.97,13.333 -13.33,13.333 h -337.34 c -7.36,0 -13.33,-5.97 -13.33,-13.333 z"
       stroke="#8faadc"
       stroke-width="13.3333"
       stroke-miterlimit="8"
       fill="#ffd966"
       fill-rule="evenodd"
       id="path2214" />
    <text
       font-family="Calibri, Calibri_MSFontService, sans-serif"
       font-weight="400"
       font-size="59px"
       transform="translate(1260.61,494)"
       id="text2216">Container</text>
    <path
       d="m 1029.5,563.167 c 0,-5.891 4.78,-10.667 10.67,-10.667 h 328.66 c 5.89,0 10.67,4.776 10.67,10.667 v 42.666 c 0,5.891 -4.78,10.667 -10.67,10.667 h -328.66 c -5.89,0 -10.67,-4.776 -10.67,-10.667 z"
       stroke="#000000"
       stroke-width="5.33333"
       stroke-miterlimit="8"
       fill="#f4b183"
       fill-rule="evenodd"
       id="path2218" />
    <path
       d="m 981.5,765.168 c 0,-45.104 36.56,-81.668 81.67,-81.668 h 632.66 c 45.11,0 81.67,36.564 81.67,81.668 v 326.662 c 0,45.11 -36.56,81.67 -81.67,81.67 h -632.66 c -45.11,0 -81.67,-36.56 -81.67,-81.67 z"
       stroke="#a9d18e"
       stroke-width="13.3333"
       stroke-miterlimit="8"
       fill="#bfbfbf"
       fill-rule="evenodd"
       id="path2220" />
    <path
       d="m 1275,659.167 c 0,-6.72 5.45,-12.167 12.17,-12.167 h 183.66 c 6.72,0 12.17,5.447 12.17,12.167 v 48.666 c 0,6.72 -5.45,12.167 -12.17,12.167 h -183.66 c -6.72,0 -12.17,-5.447 -12.17,-12.167 z"
       stroke="#a9d18e"
       stroke-width="8"
       stroke-miterlimit="8"
       fill="#ffd966"
       fill-rule="evenodd"
       id="path2222" />
    <text
       font-family="Calibri, Calibri_MSFontService, sans-serif"
       font-weight="400"
       font-size="59px"
       transform="translate(1304.82,703)"
       id="text2224">Image</text>
    <path
       d="m 1031.5,1062 c 0,-5.8 4.7,-10.5 10.5,-10.5 h 675 c 5.8,0 10.5,4.7 10.5,10.5 v 42 c 0,5.8 -4.7,10.5 -10.5,10.5 h -675 c -5.8,0 -10.5,-4.7 -10.5,-10.5 z"
       stroke="#ffffff"
       stroke-width="5.33333"
       stroke-miterlimit="8"
       fill="#f4b183"
       fill-rule="evenodd"
       id="path2226" />
    <text
       fill="#ffffff"
       font-family="Calibri, Calibri_MSFontService, sans-serif"
       font-weight="400"
       font-size="43px"
       transform="translate(1225.69,1097)"
       id="text2228">Operating System</text>
    <path
       d="m 1031.5,967.167 c 0,-5.891 4.78,-10.667 10.67,-10.667 h 674.66 c 5.89,0 10.67,4.776 10.67,10.667 v 42.663 c 0,5.89 -4.78,10.67 -10.67,10.67 h -674.66 c -5.89,0 -10.67,-4.78 -10.67,-10.67 z"
       stroke="#ffffff"
       stroke-width="5.33333"
       stroke-miterlimit="8"
       fill="#ffb466"
       fill-rule="evenodd"
       id="path2230" />
    <text
       fill="#ffffff"
       font-family="Calibri, Calibri_MSFontService, sans-serif"
       font-weight="400"
       font-size="43px"
       transform="translate(1305.07,1002)"
       id="text2232">Libraries</text>
    <path
       d="m 1031.5,873 c 0,-5.799 4.7,-10.5 10.5,-10.5 h 675 c 5.8,0 10.5,4.701 10.5,10.5 v 42 c 0,5.799 -4.7,10.5 -10.5,10.5 h -675 c -5.8,0 -10.5,-4.701 -10.5,-10.5 z"
       stroke="#ffffff"
       stroke-width="5.33333"
       stroke-miterlimit="8"
       fill="#a9d18e"
       fill-rule="evenodd"
       id="path2234" />
    <text
       fill="#ffffff"
       font-family="Calibri, Calibri_MSFontService, sans-serif"
       font-weight="400"
       font-size="43px"
       transform="translate(1217.67,908)"
       id="text2236">Language Runtime</text>
    <path
       d="m 1031.5,779 c 0,-5.799 4.7,-10.5 10.5,-10.5 h 675 c 5.8,0 10.5,4.701 10.5,10.5 v 42 c 0,5.799 -4.7,10.5 -10.5,10.5 h -675 c -5.8,0 -10.5,-4.701 -10.5,-10.5 z"
       stroke="#ffffff"
       stroke-width="5.33333"
       stroke-miterlimit="8"
       fill="#9dc3e6"
       fill-rule="evenodd"
       id="path2238" />
    <text
       fill="#ffffff"
       font-family="Calibri, Calibri_MSFontService, sans-serif"
       font-weight="400"
       font-size="43px"
       transform="translate(1280.59,814)"
       id="text2240">Application</text>
    <path
       d="m 876.5,1114.5 c -31.209,0 -56.509,-4.22 -56.509,-9.42 V 997.918 c 0,-5.202 -25.3,-9.418 -56.509,-9.418 31.209,0 56.509,-4.216 56.509,-9.418 V 871.918 c 0,-5.202 25.3,-9.418 56.509,-9.418"
       stroke="#bf9000"
       stroke-width="13.3333"
       stroke-miterlimit="8"
       fill="none"
       fill-rule="evenodd"
       id="path2242" />
    <rect
       x="524"
       y="957"
       width="244"
       height="62"
       fill="#bf9000"
       id="rect2244" />
    <text
       fill="#ffffff"
       font-family="Calibri, Calibri_MSFontService, sans-serif"
       font-weight="400"
       font-size="43px"
       transform="translate(533.66,1002)"
       id="text2246">Environment</text>
    <path
       d="m 1379.5,565 c 0,-5.799 4.7,-10.5 10.5,-10.5 h 62 c 5.8,0 10.5,4.701 10.5,10.5 v 42 c 0,5.799 -4.7,10.5 -10.5,10.5 h -62 c -5.8,0 -10.5,-4.701 -10.5,-10.5 z"
       stroke="#000000"
       stroke-width="5.33333"
       stroke-miterlimit="8"
       fill="#ffb466"
       fill-rule="evenodd"
       id="path2248" />
    <path
       d="m 1462.5,561 c 0,-5.799 4.7,-10.5 10.5,-10.5 h 78 c 5.8,0 10.5,4.701 10.5,10.5 v 42 c 0,5.799 -4.7,10.5 -10.5,10.5 h -78 c -5.8,0 -10.5,-4.701 -10.5,-10.5 z"
       stroke="#000000"
       stroke-width="5.33333"
       stroke-miterlimit="8"
       fill="#a9d18e"
       fill-rule="evenodd"
       id="path2250" />
    <path
       d="m 1561.5,561.167 c 0,-5.891 4.78,-10.667 10.67,-10.667 h 144.66 c 5.89,0 10.67,4.776 10.67,10.667 v 42.666 c 0,5.891 -4.78,10.667 -10.67,10.667 h -144.66 c -5.89,0 -10.67,-4.776 -10.67,-10.667 z"
       stroke="#000000"
       stroke-width="5.33333"
       stroke-miterlimit="8"
       fill="#9dc3e6"
       fill-rule="evenodd"
       id="path2252" />
    <rect
       x="1010"
       y="538"
       width="551"
       height="91"
       stroke="#bf9000"
       stroke-width="8"
       stroke-miterlimit="8"
       stroke-dasharray="24, 8"
       fill="none"
       id="rect2254" />
    <path
       d="M 789.833,985.342 V 576.833 h 187.371 v 13.334 H 796.5 l 6.667,-6.667 V 985.342 Z M 970.537,563.5 l 40.003,20 -40.003,20 z"
       fill="#bf9000"
       id="path2256" />
  </g>
</svg>
