<?xml version="1.0" encoding="UTF-8" standalone="no"?>
<svg
   width="1000.6779"
   height="620.33905"
   overflow="hidden"
   version="1.1"
   id="svg27"
   sodipodi:docname="environment_and_application.svg"
   inkscape:version="1.2 (dc2aedaf03, 2022-05-15)"
   xmlns:inkscape="http://www.inkscape.org/namespaces/inkscape"
   xmlns:sodipodi="http://sodipodi.sourceforge.net/DTD/sodipodi-0.dtd"
   xmlns="http://www.w3.org/2000/svg"
   xmlns:svg="http://www.w3.org/2000/svg">
  <sodipodi:namedview
     id="namedview29"
     pagecolor="#ffffff"
     bordercolor="#666666"
     borderopacity="1.0"
     inkscape:showpageshadow="2"
     inkscape:pageopacity="0.0"
     inkscape:pagecheckerboard="0"
     inkscape:deskcolor="#d1d1d1"
     showgrid="false"
     inkscape:zoom="0.49166667"
     inkscape:cx="1390.1695"
     inkscape:cy="453.55932"
     inkscape:window-width="1920"
     inkscape:window-height="1017"
     inkscape:window-x="-8"
     inkscape:window-y="-8"
     inkscape:window-maximized="1"
     inkscape:current-layer="svg27" />
  <defs
     id="defs5">
    <clipPath
       id="clip0">
      <rect
         x="0"
         y="0"
         width="2880"
         height="1920"
         id="rect2" />
    </clipPath>
    <clipPath
       clipPathUnits="userSpaceOnUse"
       id="clipPath247">
      <rect
         style="fill:none"
         id="rect249"
         width="1006.7797"
         height="624.40686"
         x="876.61017"
         y="410.84747" />
    </clipPath>
  </defs>
  <g
     clip-path="url(#clip0)"
     id="g25"
     transform="translate(-878.84745,-410.94915)">
    <rect
       x="0"
       y="0"
       width="2880"
       height="1920"
       fill="#ffffff"
       id="rect7"
       clip-path="url(#clipPath247)" />
    <path
       d="M 897,565.669 C 897,515.594 937.594,475 987.669,475 h 778.661 c 50.08,0 90.67,40.594 90.67,90.669 v 362.662 c 0,50.075 -40.59,90.669 -90.67,90.669 H 987.669 C 937.594,1019 897,978.406 897,928.331 Z"
       stroke="#8faadc"
       stroke-width="16"
       stroke-miterlimit="8"
       fill="#deebf7"
       fill-rule="evenodd"
       id="path9" />
    <path
       d="m 1197.5,448.834 c 0,-7.364 5.97,-13.334 13.33,-13.334 h 337.34 c 7.36,0 13.33,5.97 13.33,13.334 v 53.333 c 0,7.363 -5.97,13.333 -13.33,13.333 h -337.34 c -7.36,0 -13.33,-5.97 -13.33,-13.333 z"
       stroke="#8faadc"
       stroke-width="13.3333"
       stroke-miterlimit="8"
       fill="#ffd966"
       fill-rule="evenodd"
       id="path11" />
    <text
       font-family="Calibri, Calibri_MSFontService, sans-serif"
       font-weight="400"
       font-size="59px"
       transform="translate(1260.61,494)"
       id="text13">Container</text>
    <path
       d="m 981.5,584.167 c 0,-15.28 12.387,-27.667 27.67,-27.667 h 740.66 c 15.28,0 27.67,12.387 27.67,27.667 v 110.666 c 0,15.28 -12.39,27.667 -27.67,27.667 h -740.66 c -15.283,0 -27.67,-12.387 -27.67,-27.667 z"
       stroke="#000000"
       stroke-width="13.3333"
       stroke-miterlimit="8"
       fill="#9dc3e6"
       fill-rule="evenodd"
       id="path15" />
    <text
       fill="#ffffff"
       font-family="Calibri, Calibri_MSFontService, sans-serif"
       font-weight="400"
       font-size="59px"
       transform="translate(1243.9,659)"
       id="text19">Applicatio<tspan
   font-size="59px"
   x="238.8"
   y="0"
   id="tspan17">n</tspan></text>
    <path
       d="m 981.5,790.167 c 0,-20.803 16.864,-37.667 37.67,-37.667 h 720.66 c 20.81,0 37.67,16.864 37.67,37.667 v 150.666 c 0,20.803 -16.86,37.667 -37.67,37.667 h -720.66 c -20.806,0 -37.67,-16.864 -37.67,-37.667 z"
       stroke="#000000"
       stroke-width="13.3333"
       stroke-miterlimit="8"
       fill="#bf9000"
       fill-rule="evenodd"
       id="path21" />
    <text
       fill="#ffffff"
       font-family="Calibri, Calibri_MSFontService, sans-serif"
       font-weight="400"
       font-size="59px"
       transform="translate(1225.78,885)"
       id="text23">Environment</text>
  </g>
</svg>
